<svg width="120" height="24" viewBox="0 0 120 24" fill="none" xmlns="http://www.w3.org/2000/svg">
<path d="M12.2637 17.25L6.07617 21L7.7168 13.9688L2.2793 9.23438L9.45117 8.625L12.2637 2.01562L15.0762 8.625L22.248 9.23438L16.8105 13.9688L18.4512 21L12.2637 17.25Z" fill="url(#paint0_linear_18398_221)"/>
<path d="M36.2637 17.25L30.0762 21L31.7168 13.9688L26.2793 9.23438L33.4512 8.625L36.2637 2.01562L39.0762 8.625L46.248 9.23438L40.8105 13.9688L42.4512 21L36.2637 17.25Z" fill="url(#paint1_linear_18398_221)"/>
<path d="M60.2637 17.25L54.0762 21L55.7168 13.9688L50.2793 9.23438L57.4512 8.625L60.2637 2.01562L63.0762 8.625L70.248 9.23438L64.8105 13.9688L66.4512 21L60.2637 17.25Z" fill="url(#paint2_linear_18398_221)"/>
<path d="M84.2637 17.25L78.0762 21L79.7168 13.9688L74.2793 9.23438L81.4512 8.625L84.2637 2.01562L87.0762 8.625L94.248 9.23438L88.8105 13.9688L90.4512 21L84.2637 17.25Z" fill="url(#paint3_linear_18398_221)"/>
<path d="M108 17.25L101.812 21L103.453 13.9688L98.0156 9.23438L105.188 8.625L108 2.01562L110.812 8.625L117.984 9.23438L112.547 13.9688L114.188 21L108 17.25Z" fill="url(#paint4_linear_18398_221)"/>
<defs>
<linearGradient id="paint0_linear_18398_221" x1="12.2637" y1="0" x2="12.2637" y2="24" gradientUnits="userSpaceOnUse">
<stop stop-color="#BC9CFF"/>
<stop offset="1" stop-color="#8BA4F9"/>
</linearGradient>
<linearGradient id="paint1_linear_18398_221" x1="36.2637" y1="0" x2="36.2637" y2="24" gradientUnits="userSpaceOnUse">
<stop stop-color="#BC9CFF"/>
<stop offset="1" stop-color="#8BA4F9"/>
</linearGradient>
<linearGradient id="paint2_linear_18398_221" x1="60.2637" y1="0" x2="60.2637" y2="24" gradientUnits="userSpaceOnUse">
<stop stop-color="#BC9CFF"/>
<stop offset="1" stop-color="#8BA4F9"/>
</linearGradient>
<linearGradient id="paint3_linear_18398_221" x1="84.2637" y1="0" x2="84.2637" y2="24" gradientUnits="userSpaceOnUse">
<stop stop-color="#BC9CFF"/>
<stop offset="1" stop-color="#8BA4F9"/>
</linearGradient>
<linearGradient id="paint4_linear_18398_221" x1="108" y1="0" x2="108" y2="24" gradientUnits="userSpaceOnUse">
<stop stop-color="#BC9CFF"/>
<stop offset="1" stop-color="#8BA4F9"/>
</linearGradient>
</defs>
</svg>
