<svg width="41" height="20" viewBox="0 0 41 20" fill="none" xmlns="http://www.w3.org/2000/svg">
<rect x="1.47211" y="0.5" width="38.7211" height="19" rx="9.5" fill="white" stroke="#BC9CFF"/>
<path d="M23.6093 6V13H22.8893V6.64H21.2393V6H23.6093ZM30.0626 12.36V13H25.1526V12.49L28.0626 9.64C28.4293 9.28 28.676 8.97 28.8026 8.71C28.936 8.44333 29.0026 8.17667 29.0026 7.91C29.0026 7.49667 28.8593 7.17667 28.5726 6.95C28.2926 6.71667 27.8893 6.6 27.3626 6.6C26.5426 6.6 25.906 6.86 25.4526 7.38L24.9426 6.94C25.216 6.62 25.5626 6.37333 25.9826 6.2C26.4093 6.02667 26.8893 5.94 27.4226 5.94C28.136 5.94 28.6993 6.11 29.1126 6.45C29.5326 6.78333 29.7426 7.24333 29.7426 7.83C29.7426 8.19 29.6626 8.53667 29.5026 8.87C29.3426 9.20333 29.0393 9.58667 28.5926 10.02L26.2126 12.36H30.0626Z" fill="#BC9CFF"/>
<path d="M10.9024 13.8867L10.2969 13.3398C9.6068 12.7148 9.1055 12.2526 8.793 11.9531C8.4805 11.6536 8.12893 11.2826 7.73831 10.8398C7.3607 10.3971 7.10029 10 6.95706 9.64844C6.81383 9.28385 6.74222 8.91276 6.74222 8.53516C6.74222 7.89714 6.95706 7.35677 7.38675 6.91406C7.82945 6.47135 8.37633 6.25 9.02737 6.25C9.78258 6.25 10.4076 6.54297 10.9024 7.12891C11.3972 6.54297 12.0222 6.25 12.7774 6.25C13.4284 6.25 13.9688 6.47135 14.3985 6.91406C14.8412 7.35677 15.0625 7.89714 15.0625 8.53516C15.0625 9.04297 14.8933 9.57031 14.5547 10.1172C14.2162 10.6641 13.8451 11.1393 13.4414 11.543C13.0508 11.9466 12.4063 12.5521 11.5078 13.3594L10.9024 13.8867Z" fill="url(#paint0_linear_18384_115)"/>
<defs>
<linearGradient id="paint0_linear_18384_115" x1="10.9024" y1="0" x2="10.9024" y2="20" gradientUnits="userSpaceOnUse">
<stop stop-color="#BC9CFF"/>
<stop offset="1" stop-color="#8BA4F9"/>
</linearGradient>
</defs>
</svg>
